<?xml version="1.0" standalone="no"?>
<!--
  - SPDX-License-Identifier: AGPL-3.0-only
  - libra-logo-dark.svg
  - Copyright (C) 2025 Nextify Limited
  -
  - This program is free software: you can redistribute it and/or modify
  - it under the terms of the GNU Affero General Public License as
  - published by the Free Software Foundation, either version 3 of the
  - License, or (at your option) any later version.
  -
  - This program is distributed in the hope that it will be useful,
  - but WITHOUT ANY WARRANTY; without even the implied warranty of
  - MERCHANTABILITY or FITNESS FOR A PARTICULAR PURPOSE. See the
  - GNU Affero General Public License for more details.
  -
  - You should have received a copy of the GNU Affero General Public License
  - along with this program. If not, see <https://www.gnu.org/licenses/>.
  -
  -->

<!DOCTYPE svg PUBLIC "-//W3C//DTD SVG 20010904//EN"
 "http://www.w3.org/TR/2001/REC-SVG-20010904/DTD/svg10.dtd">
<svg version="1.0" xmlns="http://www.w3.org/2000/svg"
 width="2000.000000pt" height="1500.000000pt" viewBox="0 0 2000.000000 1500.000000"
 preserveAspectRatio="xMidYMid meet">

<g transform="translate(0.000000,1500.000000) scale(0.100000,-0.100000)"
fill="#FFFFFF" stroke="none">
<path d="M5196 10205 c-524 -66 -1042 -307 -1366 -635 -332 -336 -486 -786
-402 -1170 61 -277 249 -759 493 -1268 43 -91 78 -166 76 -168 -1 -1 -303 20
-671 47 -368 27 -670 48 -672 46 -6 -5 101 -756 109 -763 5 -5 1651 238 1779
263 l28 5 -61 67 c-95 102 -238 297 -322 439 -187 314 -302 638 -338 952 -17
148 -7 413 19 510 82 309 277 578 549 761 290 193 609 282 1013 280 181 0 290
-14 426 -51 493 -138 908 -583 1020 -1095 26 -120 24 -445 -4 -625 -59 -388
-198 -826 -381 -1200 -23 -46 -40 -85 -38 -87 9 -9 1463 -360 1468 -354 9 9
144 559 139 565 -3 2 -261 54 -573 114 -313 61 -570 112 -573 114 -2 3 14 47
37 99 126 289 288 718 357 949 77 253 86 306 86 495 0 179 -9 259 -51 415
-171 648 -792 1135 -1638 1285 -125 23 -375 27 -509 10z"/>
<path d="M8920 7520 l0 -980 660 0 660 0 0 125 0 125 -515 0 -515 0 0 855 0
855 -145 0 -145 0 0 -980z"/>
<path d="M10540 8380 l0 -119 133 -3 132 -3 3 -732 2 -733 -135 0 -135 0 0
-125 0 -125 410 0 410 0 0 125 0 125 -135 0 -135 0 2 733 3 732 133 3 132 3 0
119 0 120 -410 0 -410 0 0 -120z"/>
<path d="M11800 7520 l0 -980 460 0 c260 0 503 5 556 11 278 31 451 124 526
285 78 166 54 406 -52 527 -85 96 -210 148 -405 169 -117 12 -155 28 -66 28
126 0 275 48 357 116 90 73 138 237 116 395 -34 239 -185 370 -479 414 -75 11
-203 15 -555 15 l-458 0 0 -980z m950 730 c120 -21 190 -65 233 -145 18 -33
21 -58 22 -140 0 -86 -3 -107 -24 -149 -27 -55 -85 -97 -166 -122 -64 -19
-361 -36 -570 -32 l-160 3 -3 304 -2 304 302 -6 c167 -3 332 -11 368 -17z m-6
-825 c234 -31 332 -117 344 -301 8 -142 -34 -231 -137 -287 -89 -49 -164 -58
-533 -64 l-338 -6 0 337 0 336 278 0 c184 0 313 -5 386 -15z"/>
<path d="M13720 7521 l0 -981 145 0 145 0 0 414 0 413 178 7 c162 6 347 -3
418 -20 41 -10 105 -42 132 -68 60 -53 77 -131 90 -396 8 -146 12 -172 34
-220 14 -30 40 -70 59 -88 56 -56 84 -67 184 -67 74 0 98 4 138 23 l47 24 0
90 c0 74 -3 89 -14 85 -43 -17 -85 -18 -114 -3 -54 28 -66 65 -87 264 -20 190
-44 261 -110 329 -36 36 -63 55 -95 63 -75 20 -77 23 -28 31 105 16 215 89
274 181 44 68 76 184 81 293 17 318 -121 502 -432 576 -84 21 -120 22 -567 26
l-478 4 0 -980z m925 729 c213 -31 295 -121 296 -326 0 -105 -11 -156 -44
-205 -31 -47 -106 -95 -169 -109 -83 -18 -336 -31 -533 -28 l-180 3 -3 330
c-1 181 0 336 3 344 5 12 48 13 283 8 152 -4 309 -12 347 -17z"/>
<path d="M15850 7533 c-179 -531 -326 -972 -328 -980 -3 -11 24 -13 149 -11
l153 3 90 280 c50 154 95 286 99 293 6 9 99 12 407 12 308 0 401 -3 407 -12 4
-7 49 -139 99 -293 l91 -280 151 -3 c84 -1 152 1 152 5 0 5 -149 446 -332 980
l-333 973 -240 0 -241 0 -324 -967z m738 335 c89 -277 162 -506 162 -510 0 -5
-148 -8 -330 -8 -181 0 -330 3 -330 8 -1 14 324 1012 330 1012 3 0 79 -226
168 -502z"/>
<path d="M3821 5989 c-227 -12 -410 -40 -571 -87 -234 -69 -443 -201 -469
-297 -33 -123 2 -391 95 -710 l14 -51 2643 148 c1453 80 2667 148 2697 150
l55 3 -145 47 c-468 152 -1203 351 -1775 482 -815 186 -1510 291 -2092 316
-248 11 -243 11 -452 -1z"/>
</g>
</svg>
